M48
; DRILL file {KiCad 9.0.3} date 2025-09-12T09:25:22-0700
; FORMAT={-:-/ absolute / inch / decimal}
; #@! TF.CreationDate,2025-09-12T09:25:22-07:00
; #@! TF.GenerationSoftware,Kicad,Pcbnew,9.0.3
; #@! TF.FileFunction,Plated,1,4,PTH
FMAT,2
INCH
; #@! TA.AperFunction,Plated,PTH,ViaDrill
T1C0.0118
; #@! TA.AperFunction,Plated,PTH,ComponentDrill
T2C0.0276
%
G90
G05
T1
X2.9331Y-3.437
X2.9843Y-3.2559
X2.9961Y-2.4961
X3.0704Y-2.6461
X3.378Y-2.689
X3.378Y-2.8622
X3.378Y-3.1772
X3.378Y-3.3504
X3.4134Y-2.6535
X3.4134Y-3.3858
X3.5Y-2.5669
X3.5Y-2.7402
X3.5Y-3.0551
X3.5Y-3.2283
X3.5039Y-2.2756
X3.5354Y-2.5315
X3.5354Y-3.2638
X3.5866Y-2.6535
X3.5866Y-2.8976
X3.5866Y-3.3858
X3.5906Y-3.622
X3.5945Y-3.1142
X3.6772Y-2.2205
X3.7087Y-2.5315
X3.7087Y-3.2638
X3.7441Y-2.7402
X3.7441Y-3.0551
X3.7677Y-3.6732
X3.8661Y-2.7402
X3.8661Y-3.0551
X3.9016Y-2.5315
X3.9016Y-3.2638
X4.0236Y-2.6535
X4.0236Y-2.8976
X4.0236Y-3.1417
X4.0236Y-3.3858
X4.0748Y-2.5315
X4.0748Y-3.2638
X4.0984Y-3.626
X4.1102Y-2.5669
X4.1102Y-2.7402
X4.1102Y-3.0551
X4.1102Y-3.2283
X4.1417Y-2.2795
X4.1969Y-2.6535
X4.1969Y-3.3858
X4.2323Y-2.689
X4.2323Y-2.8622
X4.2323Y-3.1772
X4.2323Y-3.3504
X4.6142Y-3.0394
X4.622Y-2.6378
X4.6772Y-2.815
X4.6772Y-3.2165
T2
X2.9528Y-2.685
X2.9528Y-2.811
X2.9528Y-2.937
X2.9528Y-3.0551
X2.9528Y-3.1732
X3.2205Y-3.6614
X3.2362Y-2.2362
X3.3543Y-3.6614
X3.4173Y-2.2362
X3.5039Y-3.6614
X3.7559Y-2.2362
X3.8445Y-3.6614
X3.8819Y-2.2362
X4.002Y-3.6614
X4.0551Y-2.2362
X4.3543Y-3.6614
X4.3701Y-2.2441
X4.6535Y-2.5591
X4.6614Y-2.9606
X4.6614Y-3.3386
M30
