%TF.GenerationSoftware,KiCad,Pcbnew,9.0.3*%
%TF.CreationDate,2025-07-16T09:58:01-07:00*%
%TF.ProjectId,SiPM_board_draft,5369504d-5f62-46f6-9172-645f64726166,v1.1*%
%TF.SameCoordinates,Original*%
%TF.FileFunction,Copper,L1,Top*%
%TF.FilePolarity,Positive*%
%FSLAX46Y46*%
G04 Gerber Fmt 4.6, Leading zero omitted, Abs format (unit mm)*
G04 Created by KiCad (PCBNEW 9.0.3) date 2025-07-16 09:58:01*
%MOMM*%
%LPD*%
G01*
G04 APERTURE LIST*
G04 Aperture macros list*
%AMRoundRect*
0 Rectangle with rounded corners*
0 $1 Rounding radius*
0 $2 $3 $4 $5 $6 $7 $8 $9 X,Y pos of 4 corners*
0 Add a 4 corners polygon primitive as box body*
4,1,4,$2,$3,$4,$5,$6,$7,$8,$9,$2,$3,0*
0 Add four circle primitives for the rounded corners*
1,1,$1+$1,$2,$3*
1,1,$1+$1,$4,$5*
1,1,$1+$1,$6,$7*
1,1,$1+$1,$8,$9*
0 Add four rect primitives between the rounded corners*
20,1,$1+$1,$2,$3,$4,$5,0*
20,1,$1+$1,$4,$5,$6,$7,0*
20,1,$1+$1,$6,$7,$8,$9,0*
20,1,$1+$1,$8,$9,$2,$3,0*%
%AMFreePoly0*
4,1,6,1.000000,0.000000,0.500000,-0.750000,-0.500000,-0.750000,-0.500000,0.750000,0.500000,0.750000,1.000000,0.000000,1.000000,0.000000,$1*%
%AMFreePoly1*
4,1,7,0.700000,0.000000,1.200000,-0.750000,-1.200000,-0.750000,-0.700000,0.000000,-1.200000,0.750000,1.200000,0.750000,0.700000,0.000000,0.700000,0.000000,$1*%
G04 Aperture macros list end*
%TA.AperFunction,NonConductor*%
%ADD10C,0.200000*%
%TD*%
%ADD11C,0.100000*%
%TA.AperFunction,NonConductor*%
%ADD12C,0.100000*%
%TD*%
%ADD13C,0.300000*%
%TA.AperFunction,NonConductor*%
%ADD14C,0.300000*%
%TD*%
%TA.AperFunction,ComponentPad*%
%ADD15RoundRect,0.250000X-0.600000X-0.600000X0.600000X-0.600000X0.600000X0.600000X-0.600000X0.600000X0*%
%TD*%
%TA.AperFunction,SMDPad,CuDef*%
%ADD16FreePoly0,0.000000*%
%TD*%
%TA.AperFunction,SMDPad,CuDef*%
%ADD17FreePoly1,0.000000*%
%TD*%
%TA.AperFunction,SMDPad,CuDef*%
%ADD18FreePoly0,180.000000*%
%TD*%
%TA.AperFunction,SMDPad,CuDef*%
%ADD19FreePoly0,270.000000*%
%TD*%
%TA.AperFunction,SMDPad,CuDef*%
%ADD20FreePoly1,270.000000*%
%TD*%
%TA.AperFunction,SMDPad,CuDef*%
%ADD21FreePoly0,90.000000*%
%TD*%
%TA.AperFunction,SMDPad,CuDef*%
%ADD22FreePoly1,90.000000*%
%TD*%
%TA.AperFunction,SMDPad,CuDef*%
%ADD23C,1.000000*%
%TD*%
%TA.AperFunction,ViaPad*%
%ADD24C,0.600000*%
%TD*%
%TA.AperFunction,Conductor*%
%ADD25C,0.508000*%
%TD*%
G04 APERTURE END LIST*
D10*
X84100000Y-62600000D02*
X84600000Y-62600000D01*
X109200000Y-62600000D02*
X109200000Y-63600000D01*
X108100000Y-62600000D02*
X109200000Y-62600000D01*
X84100000Y-87100000D02*
X84100000Y-87700000D01*
X84100000Y-87700000D02*
X84700000Y-87700000D01*
D11*
D12*
X117268756Y-75181830D02*
X117244947Y-75229449D01*
X117244947Y-75229449D02*
X117197328Y-75277068D01*
X117197328Y-75277068D02*
X117125899Y-75348496D01*
X117125899Y-75348496D02*
X117102089Y-75396115D01*
X117102089Y-75396115D02*
X117102089Y-75443734D01*
X117221137Y-75419925D02*
X117197328Y-75467544D01*
X117197328Y-75467544D02*
X117149708Y-75515163D01*
X117149708Y-75515163D02*
X117054470Y-75538972D01*
X117054470Y-75538972D02*
X116887804Y-75538972D01*
X116887804Y-75538972D02*
X116792566Y-75515163D01*
X116792566Y-75515163D02*
X116744947Y-75467544D01*
X116744947Y-75467544D02*
X116721137Y-75419925D01*
X116721137Y-75419925D02*
X116721137Y-75324687D01*
X116721137Y-75324687D02*
X116744947Y-75277068D01*
X116744947Y-75277068D02*
X116792566Y-75229449D01*
X116792566Y-75229449D02*
X116887804Y-75205639D01*
X116887804Y-75205639D02*
X117054470Y-75205639D01*
X117054470Y-75205639D02*
X117149708Y-75229449D01*
X117149708Y-75229449D02*
X117197328Y-75277068D01*
X117197328Y-75277068D02*
X117221137Y-75324687D01*
X117221137Y-75324687D02*
X117221137Y-75419925D01*
X116887804Y-74777067D02*
X117221137Y-74777067D01*
X116887804Y-74991353D02*
X117149708Y-74991353D01*
X117149708Y-74991353D02*
X117197328Y-74967543D01*
X117197328Y-74967543D02*
X117221137Y-74919924D01*
X117221137Y-74919924D02*
X117221137Y-74848496D01*
X117221137Y-74848496D02*
X117197328Y-74800877D01*
X117197328Y-74800877D02*
X117173518Y-74777067D01*
X117221137Y-74538972D02*
X116721137Y-74538972D01*
X117221137Y-74300877D02*
X116721137Y-74300877D01*
X116721137Y-74300877D02*
X116721137Y-74110401D01*
X116721137Y-74110401D02*
X116744947Y-74062782D01*
X116744947Y-74062782D02*
X116768756Y-74038972D01*
X116768756Y-74038972D02*
X116816375Y-74015163D01*
X116816375Y-74015163D02*
X116887804Y-74015163D01*
X116887804Y-74015163D02*
X116935423Y-74038972D01*
X116935423Y-74038972D02*
X116959232Y-74062782D01*
X116959232Y-74062782D02*
X116983042Y-74110401D01*
X116983042Y-74110401D02*
X116983042Y-74300877D01*
X117197328Y-73824686D02*
X117221137Y-73753258D01*
X117221137Y-73753258D02*
X117221137Y-73634210D01*
X117221137Y-73634210D02*
X117197328Y-73586591D01*
X117197328Y-73586591D02*
X117173518Y-73562782D01*
X117173518Y-73562782D02*
X117125899Y-73538972D01*
X117125899Y-73538972D02*
X117078280Y-73538972D01*
X117078280Y-73538972D02*
X117030661Y-73562782D01*
X117030661Y-73562782D02*
X117006851Y-73586591D01*
X117006851Y-73586591D02*
X116983042Y-73634210D01*
X116983042Y-73634210D02*
X116959232Y-73729448D01*
X116959232Y-73729448D02*
X116935423Y-73777067D01*
X116935423Y-73777067D02*
X116911613Y-73800877D01*
X116911613Y-73800877D02*
X116863994Y-73824686D01*
X116863994Y-73824686D02*
X116816375Y-73824686D01*
X116816375Y-73824686D02*
X116768756Y-73800877D01*
X116768756Y-73800877D02*
X116744947Y-73777067D01*
X116744947Y-73777067D02*
X116721137Y-73729448D01*
X116721137Y-73729448D02*
X116721137Y-73610401D01*
X116721137Y-73610401D02*
X116744947Y-73538972D01*
X117197328Y-72967544D02*
X117221137Y-72896116D01*
X117221137Y-72896116D02*
X117221137Y-72777068D01*
X117221137Y-72777068D02*
X117197328Y-72729449D01*
X117197328Y-72729449D02*
X117173518Y-72705640D01*
X117173518Y-72705640D02*
X117125899Y-72681830D01*
X117125899Y-72681830D02*
X117078280Y-72681830D01*
X117078280Y-72681830D02*
X117030661Y-72705640D01*
X117030661Y-72705640D02*
X117006851Y-72729449D01*
X117006851Y-72729449D02*
X116983042Y-72777068D01*
X116983042Y-72777068D02*
X116959232Y-72872306D01*
X116959232Y-72872306D02*
X116935423Y-72919925D01*
X116935423Y-72919925D02*
X116911613Y-72943735D01*
X116911613Y-72943735D02*
X116863994Y-72967544D01*
X116863994Y-72967544D02*
X116816375Y-72967544D01*
X116816375Y-72967544D02*
X116768756Y-72943735D01*
X116768756Y-72943735D02*
X116744947Y-72919925D01*
X116744947Y-72919925D02*
X116721137Y-72872306D01*
X116721137Y-72872306D02*
X116721137Y-72753259D01*
X116721137Y-72753259D02*
X116744947Y-72681830D01*
X117221137Y-72467545D02*
X116887804Y-72467545D01*
X116721137Y-72467545D02*
X116744947Y-72491354D01*
X116744947Y-72491354D02*
X116768756Y-72467545D01*
X116768756Y-72467545D02*
X116744947Y-72443735D01*
X116744947Y-72443735D02*
X116721137Y-72467545D01*
X116721137Y-72467545D02*
X116768756Y-72467545D01*
X117221137Y-72229450D02*
X116721137Y-72229450D01*
X116721137Y-72229450D02*
X116721137Y-72038974D01*
X116721137Y-72038974D02*
X116744947Y-71991355D01*
X116744947Y-71991355D02*
X116768756Y-71967545D01*
X116768756Y-71967545D02*
X116816375Y-71943736D01*
X116816375Y-71943736D02*
X116887804Y-71943736D01*
X116887804Y-71943736D02*
X116935423Y-71967545D01*
X116935423Y-71967545D02*
X116959232Y-71991355D01*
X116959232Y-71991355D02*
X116983042Y-72038974D01*
X116983042Y-72038974D02*
X116983042Y-72229450D01*
X117221137Y-71729450D02*
X116721137Y-71729450D01*
X116721137Y-71729450D02*
X117078280Y-71562783D01*
X117078280Y-71562783D02*
X116721137Y-71396117D01*
X116721137Y-71396117D02*
X117221137Y-71396117D01*
X117692776Y-75562782D02*
X118026109Y-75443734D01*
X118026109Y-75443734D02*
X117692776Y-75324687D01*
X118026109Y-74872306D02*
X118026109Y-75158020D01*
X118026109Y-75015163D02*
X117526109Y-75015163D01*
X117526109Y-75015163D02*
X117597538Y-75062782D01*
X117597538Y-75062782D02*
X117645157Y-75110401D01*
X117645157Y-75110401D02*
X117668966Y-75158020D01*
X117978490Y-74658021D02*
X118002300Y-74634211D01*
X118002300Y-74634211D02*
X118026109Y-74658021D01*
X118026109Y-74658021D02*
X118002300Y-74681830D01*
X118002300Y-74681830D02*
X117978490Y-74658021D01*
X117978490Y-74658021D02*
X118026109Y-74658021D01*
X118026109Y-74158021D02*
X118026109Y-74443735D01*
X118026109Y-74300878D02*
X117526109Y-74300878D01*
X117526109Y-74300878D02*
X117597538Y-74348497D01*
X117597538Y-74348497D02*
X117645157Y-74396116D01*
X117645157Y-74396116D02*
X117668966Y-74443735D01*
X118026109Y-73277070D02*
X117788014Y-73443736D01*
X118026109Y-73562784D02*
X117526109Y-73562784D01*
X117526109Y-73562784D02*
X117526109Y-73372308D01*
X117526109Y-73372308D02*
X117549919Y-73324689D01*
X117549919Y-73324689D02*
X117573728Y-73300879D01*
X117573728Y-73300879D02*
X117621347Y-73277070D01*
X117621347Y-73277070D02*
X117692776Y-73277070D01*
X117692776Y-73277070D02*
X117740395Y-73300879D01*
X117740395Y-73300879D02*
X117764204Y-73324689D01*
X117764204Y-73324689D02*
X117788014Y-73372308D01*
X117788014Y-73372308D02*
X117788014Y-73562784D01*
X118026109Y-73062784D02*
X117526109Y-73062784D01*
X117526109Y-73062784D02*
X117883252Y-72896117D01*
X117883252Y-72896117D02*
X117526109Y-72729451D01*
X117526109Y-72729451D02*
X118026109Y-72729451D01*
X118026109Y-72491355D02*
X117526109Y-72491355D01*
X117526109Y-72491355D02*
X117526109Y-72372307D01*
X117526109Y-72372307D02*
X117549919Y-72300879D01*
X117549919Y-72300879D02*
X117597538Y-72253260D01*
X117597538Y-72253260D02*
X117645157Y-72229450D01*
X117645157Y-72229450D02*
X117740395Y-72205641D01*
X117740395Y-72205641D02*
X117811823Y-72205641D01*
X117811823Y-72205641D02*
X117907061Y-72229450D01*
X117907061Y-72229450D02*
X117954680Y-72253260D01*
X117954680Y-72253260D02*
X118002300Y-72300879D01*
X118002300Y-72300879D02*
X118026109Y-72372307D01*
X118026109Y-72372307D02*
X118026109Y-72491355D01*
X117978490Y-71705641D02*
X118002300Y-71729450D01*
X118002300Y-71729450D02*
X118026109Y-71800879D01*
X118026109Y-71800879D02*
X118026109Y-71848498D01*
X118026109Y-71848498D02*
X118002300Y-71919926D01*
X118002300Y-71919926D02*
X117954680Y-71967545D01*
X117954680Y-71967545D02*
X117907061Y-71991355D01*
X117907061Y-71991355D02*
X117811823Y-72015164D01*
X117811823Y-72015164D02*
X117740395Y-72015164D01*
X117740395Y-72015164D02*
X117645157Y-71991355D01*
X117645157Y-71991355D02*
X117597538Y-71967545D01*
X117597538Y-71967545D02*
X117549919Y-71919926D01*
X117549919Y-71919926D02*
X117526109Y-71848498D01*
X117526109Y-71848498D02*
X117526109Y-71800879D01*
X117526109Y-71800879D02*
X117549919Y-71729450D01*
X117549919Y-71729450D02*
X117573728Y-71705641D01*
X118331081Y-75372306D02*
X118688224Y-75372306D01*
X118688224Y-75372306D02*
X118759652Y-75396115D01*
X118759652Y-75396115D02*
X118807272Y-75443734D01*
X118807272Y-75443734D02*
X118831081Y-75515163D01*
X118831081Y-75515163D02*
X118831081Y-75562782D01*
X118497748Y-74919925D02*
X118831081Y-74919925D01*
X118497748Y-75134211D02*
X118759652Y-75134211D01*
X118759652Y-75134211D02*
X118807272Y-75110401D01*
X118807272Y-75110401D02*
X118831081Y-75062782D01*
X118831081Y-75062782D02*
X118831081Y-74991354D01*
X118831081Y-74991354D02*
X118807272Y-74943735D01*
X118807272Y-74943735D02*
X118783462Y-74919925D01*
X118831081Y-74610401D02*
X118807272Y-74658020D01*
X118807272Y-74658020D02*
X118759652Y-74681830D01*
X118759652Y-74681830D02*
X118331081Y-74681830D01*
X118497748Y-74467544D02*
X118831081Y-74348496D01*
X118497748Y-74229449D02*
X118831081Y-74348496D01*
X118831081Y-74348496D02*
X118950129Y-74396115D01*
X118950129Y-74396115D02*
X118973938Y-74419925D01*
X118973938Y-74419925D02*
X118997748Y-74467544D01*
X118378700Y-73681830D02*
X118354891Y-73658021D01*
X118354891Y-73658021D02*
X118331081Y-73610402D01*
X118331081Y-73610402D02*
X118331081Y-73491354D01*
X118331081Y-73491354D02*
X118354891Y-73443735D01*
X118354891Y-73443735D02*
X118378700Y-73419926D01*
X118378700Y-73419926D02*
X118426319Y-73396116D01*
X118426319Y-73396116D02*
X118473938Y-73396116D01*
X118473938Y-73396116D02*
X118545367Y-73419926D01*
X118545367Y-73419926D02*
X118831081Y-73705640D01*
X118831081Y-73705640D02*
X118831081Y-73396116D01*
X118331081Y-73086593D02*
X118331081Y-73038974D01*
X118331081Y-73038974D02*
X118354891Y-72991355D01*
X118354891Y-72991355D02*
X118378700Y-72967545D01*
X118378700Y-72967545D02*
X118426319Y-72943736D01*
X118426319Y-72943736D02*
X118521557Y-72919926D01*
X118521557Y-72919926D02*
X118640605Y-72919926D01*
X118640605Y-72919926D02*
X118735843Y-72943736D01*
X118735843Y-72943736D02*
X118783462Y-72967545D01*
X118783462Y-72967545D02*
X118807272Y-72991355D01*
X118807272Y-72991355D02*
X118831081Y-73038974D01*
X118831081Y-73038974D02*
X118831081Y-73086593D01*
X118831081Y-73086593D02*
X118807272Y-73134212D01*
X118807272Y-73134212D02*
X118783462Y-73158021D01*
X118783462Y-73158021D02*
X118735843Y-73181831D01*
X118735843Y-73181831D02*
X118640605Y-73205640D01*
X118640605Y-73205640D02*
X118521557Y-73205640D01*
X118521557Y-73205640D02*
X118426319Y-73181831D01*
X118426319Y-73181831D02*
X118378700Y-73158021D01*
X118378700Y-73158021D02*
X118354891Y-73134212D01*
X118354891Y-73134212D02*
X118331081Y-73086593D01*
X118378700Y-72729450D02*
X118354891Y-72705641D01*
X118354891Y-72705641D02*
X118331081Y-72658022D01*
X118331081Y-72658022D02*
X118331081Y-72538974D01*
X118331081Y-72538974D02*
X118354891Y-72491355D01*
X118354891Y-72491355D02*
X118378700Y-72467546D01*
X118378700Y-72467546D02*
X118426319Y-72443736D01*
X118426319Y-72443736D02*
X118473938Y-72443736D01*
X118473938Y-72443736D02*
X118545367Y-72467546D01*
X118545367Y-72467546D02*
X118831081Y-72753260D01*
X118831081Y-72753260D02*
X118831081Y-72443736D01*
X118331081Y-71991356D02*
X118331081Y-72229451D01*
X118331081Y-72229451D02*
X118569176Y-72253260D01*
X118569176Y-72253260D02*
X118545367Y-72229451D01*
X118545367Y-72229451D02*
X118521557Y-72181832D01*
X118521557Y-72181832D02*
X118521557Y-72062784D01*
X118521557Y-72062784D02*
X118545367Y-72015165D01*
X118545367Y-72015165D02*
X118569176Y-71991356D01*
X118569176Y-71991356D02*
X118616795Y-71967546D01*
X118616795Y-71967546D02*
X118735843Y-71967546D01*
X118735843Y-71967546D02*
X118783462Y-71991356D01*
X118783462Y-71991356D02*
X118807272Y-72015165D01*
X118807272Y-72015165D02*
X118831081Y-72062784D01*
X118831081Y-72062784D02*
X118831081Y-72181832D01*
X118831081Y-72181832D02*
X118807272Y-72229451D01*
X118807272Y-72229451D02*
X118783462Y-72253260D01*
D10*
X109200000Y-87700000D02*
X108800000Y-87700000D01*
D13*
D14*
X83068796Y-63000828D02*
X83068796Y-63357971D01*
X82711653Y-63215114D02*
X83068796Y-63357971D01*
X83068796Y-63357971D02*
X83425939Y-63215114D01*
X82854510Y-63643685D02*
X83068796Y-63357971D01*
X83068796Y-63357971D02*
X83283082Y-63643685D01*
D15*
%TO.P,J20,1,Pin_1*%
%TO.N,/C2*%
X88000000Y-60000000D03*
%TD*%
%TO.P,J6,1,Pin_1*%
%TO.N,/B3*%
X81000000Y-68000000D03*
%TD*%
%TO.P,J13,1,Pin_1*%
%TO.N,/G1*%
X107000000Y-57000000D03*
%TD*%
D16*
%TO.P,JP1,1,A*%
%TO.N,/A2*%
X74000000Y-65000000D03*
D17*
%TO.P,JP1,2,C*%
%TO.N,/A4*%
X76000000Y-65000000D03*
D18*
%TO.P,JP1,3,B*%
%TO.N,/C2*%
X78000000Y-65000000D03*
%TD*%
D15*
%TO.P,J7,1,Pin_1*%
%TO.N,/B5*%
X81000000Y-75000000D03*
%TD*%
%TO.P,J4,1,Pin_1*%
%TO.N,/D7*%
X81000000Y-82000000D03*
%TD*%
%TO.P,J16,1,Pin_1*%
%TO.N,/G7*%
X118000000Y-82000000D03*
%TD*%
%TO.P,J24,1,Pin_1*%
%TO.N,/A2*%
X75000000Y-69000000D03*
%TD*%
%TO.P,J19,1,Pin_1*%
%TO.N,/C4*%
X75000000Y-74000000D03*
%TD*%
%TO.P,J2,1,Pin_1*%
%TO.N,/D3*%
X92000000Y-57000000D03*
%TD*%
%TO.P,J9,1,Pin_1*%
%TO.N,/E1*%
X97000000Y-60000000D03*
%TD*%
%TO.P,J21,1,Pin_1*%
%TO.N,/A8*%
X86000000Y-93000000D03*
%TD*%
%TO.P,J23,1,Pin_1*%
%TO.N,/A4*%
X81000000Y-71000000D03*
%TD*%
%TO.P,J5,1,Pin_1*%
%TO.N,/B1*%
X87000000Y-57000000D03*
%TD*%
D19*
%TO.P,JP5,1,A*%
%TO.N,/G1*%
X111000000Y-57000000D03*
D20*
%TO.P,JP5,2,C*%
%TO.N,/E1*%
X111000000Y-59000000D03*
D21*
%TO.P,JP5,3,B*%
%TO.N,/G3*%
X111000000Y-61000000D03*
%TD*%
%TO.P,JP8,1,A*%
%TO.N,/H8*%
X111000000Y-93200000D03*
D22*
%TO.P,JP8,2,C*%
%TO.N,/F8*%
X111000000Y-91200000D03*
D19*
%TO.P,JP8,3,B*%
%TO.N,/H6*%
X111000000Y-89200000D03*
%TD*%
D15*
%TO.P,J25,1,Pin_1*%
%TO.N,/F8*%
X103000000Y-90000000D03*
%TD*%
D16*
%TO.P,JP7,1,A*%
%TO.N,/E7*%
X112000000Y-85000000D03*
D17*
%TO.P,JP7,2,C*%
%TO.N,/G5*%
X114000000Y-85000000D03*
D18*
%TO.P,JP7,3,B*%
%TO.N,/G7*%
X116000000Y-85000000D03*
%TD*%
D19*
%TO.P,JP2,1,A*%
%TO.N,/B1*%
X82000000Y-56800000D03*
D20*
%TO.P,JP2,2,C*%
%TO.N,/D1*%
X82000000Y-58800000D03*
D21*
%TO.P,JP2,3,B*%
%TO.N,/B3*%
X82000000Y-60800000D03*
%TD*%
D15*
%TO.P,J27,1,Pin_1*%
%TO.N,/F4*%
X103000000Y-57000000D03*
%TD*%
D16*
%TO.P,JP6,1,A*%
%TO.N,/F2*%
X114000000Y-65000000D03*
D17*
%TO.P,JP6,2,C*%
%TO.N,/H4*%
X116000000Y-65000000D03*
D18*
%TO.P,JP6,3,B*%
%TO.N,/H2*%
X118000000Y-65000000D03*
%TD*%
D15*
%TO.P,J17,1,Pin_1*%
%TO.N,/C8*%
X92000000Y-90000000D03*
%TD*%
%TO.P,J29,1,Pin_1*%
%TO.N,/H8*%
X107000000Y-93000000D03*
%TD*%
%TO.P,J30,1,Pin_1*%
%TO.N,/H6*%
X113000000Y-81000000D03*
%TD*%
%TO.P,J22,1,Pin_1*%
%TO.N,/A6*%
X81000000Y-79000000D03*
%TD*%
%TO.P,J15,1,Pin_1*%
%TO.N,/G5*%
X113000000Y-76000000D03*
%TD*%
%TO.P,J10,1,Pin_1*%
%TO.N,/E3*%
X99000000Y-57000000D03*
%TD*%
%TO.P,J28,1,Pin_1*%
%TO.N,/F2*%
X100800000Y-60000000D03*
%TD*%
%TO.P,J11,1,Pin_1*%
%TO.N,/E5*%
X99000000Y-93000000D03*
%TD*%
%TO.P,J18,1,Pin_1*%
%TO.N,/C6*%
X75000000Y-78000000D03*
%TD*%
%TO.P,J14,1,Pin_1*%
%TO.N,/G3*%
X113000000Y-70000000D03*
%TD*%
%TO.P,J1,1,Pin_1*%
%TO.N,/D1*%
X93400000Y-60000000D03*
%TD*%
D16*
%TO.P,JP4,1,A*%
%TO.N,/B5*%
X74000000Y-85000000D03*
D17*
%TO.P,JP4,2,C*%
%TO.N,/B7*%
X76000000Y-85000000D03*
D18*
%TO.P,JP4,3,B*%
%TO.N,/D7*%
X78000000Y-85000000D03*
%TD*%
D15*
%TO.P,J32,1,Pin_1*%
%TO.N,/H2*%
X118000000Y-69000000D03*
%TD*%
%TO.P,J3,1,Pin_1*%
%TO.N,/D5*%
X95000000Y-93000000D03*
%TD*%
D23*
%TO.P,U1,A2,A2*%
%TO.N,/A2*%
X85800000Y-67400000D03*
%TO.P,U1,A4,A4*%
%TO.N,/A4*%
X85800000Y-73600000D03*
%TO.P,U1,A6,A6*%
%TO.N,/A6*%
X85800000Y-79800000D03*
%TO.P,U1,A8,A8*%
%TO.N,/A8*%
X85800000Y-86000000D03*
%TO.P,U1,B1,B1*%
%TO.N,/B1*%
X88900000Y-64300000D03*
%TO.P,U1,B3,B3*%
%TO.N,/B3*%
X88900000Y-70500000D03*
%TO.P,U1,B5,B5*%
%TO.N,/B5*%
X88900000Y-76700000D03*
%TO.P,U1,B7,B7*%
%TO.N,/B7*%
X88900000Y-82900000D03*
%TO.P,U1,C2,C2*%
%TO.N,/C2*%
X92000000Y-67400000D03*
%TO.P,U1,C4,C4*%
%TO.N,/C4*%
X92000000Y-73600000D03*
%TO.P,U1,C6,C6*%
%TO.N,/C6*%
X92000000Y-79800000D03*
%TO.P,U1,C8,C8*%
%TO.N,/C8*%
X92000000Y-86000000D03*
%TO.P,U1,D1,D1*%
%TO.N,/D1*%
X95100000Y-64300000D03*
%TO.P,U1,D3,D3*%
%TO.N,/D3*%
X95100000Y-70500000D03*
%TO.P,U1,D5,D5*%
%TO.N,/D5*%
X95100000Y-76700000D03*
%TO.P,U1,D7,D7*%
%TO.N,/D7*%
X95100000Y-82900000D03*
%TO.P,U1,E1,E1*%
%TO.N,/E1*%
X98200000Y-64300000D03*
%TO.P,U1,E3,E3*%
%TO.N,/E3*%
X98200000Y-70500000D03*
%TO.P,U1,E5,E5*%
%TO.N,/E5*%
X98200000Y-76700000D03*
%TO.P,U1,E7,E7*%
%TO.N,/E7*%
X98200000Y-82900000D03*
%TO.P,U1,F2,F2*%
%TO.N,/F2*%
X101300000Y-67400000D03*
%TO.P,U1,F4,F4*%
%TO.N,/F4*%
X101300000Y-73600000D03*
%TO.P,U1,F6,F6*%
%TO.N,/F6*%
X101300000Y-79800000D03*
%TO.P,U1,F8,F8*%
%TO.N,/F8*%
X101300000Y-86000000D03*
%TO.P,U1,G1,G1*%
%TO.N,/G1*%
X104400000Y-64300000D03*
%TO.P,U1,G3,G3*%
%TO.N,/G3*%
X104400000Y-70500000D03*
%TO.P,U1,G5,G5*%
%TO.N,/G5*%
X104400000Y-76700000D03*
%TO.P,U1,G7,G7*%
%TO.N,/G7*%
X104400000Y-82900000D03*
%TO.P,U1,H2,H2*%
%TO.N,/H2*%
X107500000Y-67400000D03*
%TO.P,U1,H4,H4*%
%TO.N,/H4*%
X107500000Y-73600000D03*
%TO.P,U1,H6,H6*%
%TO.N,/H6*%
X107500000Y-79800000D03*
%TO.P,U1,H8,H8*%
%TO.N,/H8*%
X107500000Y-86000000D03*
%TD*%
D15*
%TO.P,J8,1,Pin_1*%
%TO.N,/B7*%
X89000000Y-93000000D03*
%TD*%
%TO.P,J31,1,Pin_1*%
%TO.N,/H4*%
X113000000Y-73000000D03*
%TD*%
D19*
%TO.P,JP3,1,A*%
%TO.N,/A6*%
X82000000Y-87000000D03*
D20*
%TO.P,JP3,2,C*%
%TO.N,/C8*%
X82000000Y-89000000D03*
D21*
%TO.P,JP3,3,B*%
%TO.N,/A8*%
X82000000Y-91000000D03*
%TD*%
D15*
%TO.P,J12,1,Pin_1*%
%TO.N,/E7*%
X98000000Y-90000000D03*
%TD*%
%TO.P,J26,1,Pin_1*%
%TO.N,/F6*%
X118000000Y-78000000D03*
%TD*%
D24*
%TO.N,/C2*%
X79636337Y-63909012D03*
%TO.N,/C4*%
X83480000Y-74080000D03*
%TO.N,/D1*%
X95100000Y-63200000D03*
%TO.N,/D3*%
X95100000Y-69100000D03*
%TO.N,/D5*%
X95100000Y-78100000D03*
%TO.N,/D7*%
X93800000Y-82900000D03*
%TO.N,/B1*%
X87600000Y-64300000D03*
%TO.N,/B3*%
X87500000Y-70500000D03*
%TO.N,/B5*%
X87100000Y-76700000D03*
%TO.N,/B7*%
X76000000Y-83000000D03*
X88900000Y-84300000D03*
%TO.N,/E1*%
X98100000Y-63200000D03*
%TO.N,/E3*%
X98200000Y-69000000D03*
%TO.N,/E5*%
X98200000Y-78100000D03*
%TO.N,/E7*%
X111600000Y-87400000D03*
X101500000Y-83100000D03*
X98200000Y-84100000D03*
%TO.N,/G1*%
X104400000Y-63200000D03*
%TO.N,/G3*%
X105600000Y-70500000D03*
%TO.N,/G5*%
X107500000Y-76600000D03*
%TO.N,/G7*%
X106100000Y-82900000D03*
%TO.N,/C8*%
X92000000Y-87100000D03*
%TO.N,/C6*%
X90800000Y-79800000D03*
%TO.N,/C2*%
X92000000Y-66400000D03*
%TO.N,/A8*%
X85800000Y-87100000D03*
%TO.N,/A6*%
X84700000Y-79800000D03*
%TO.N,/A4*%
X84700000Y-73600000D03*
%TO.N,/A2*%
X85800000Y-66400000D03*
%TO.N,/F8*%
X102300000Y-86900000D03*
%TO.N,/F6*%
X103300000Y-78900000D03*
%TO.N,/F4*%
X101300000Y-72000000D03*
%TO.N,/F2*%
X101300000Y-66300000D03*
X112000000Y-65200000D03*
X104700000Y-66300000D03*
%TO.N,/H8*%
X107500000Y-87200000D03*
%TO.N,/H6*%
X108600000Y-80900000D03*
%TO.N,/H4*%
X108600000Y-73600000D03*
%TO.N,/H2*%
X108500000Y-67400000D03*
%TO.N,/C4*%
X90500000Y-73600000D03*
%TD*%
D25*
%TO.N,/G3*%
X113000000Y-70000000D02*
X110745000Y-67745000D01*
X110745000Y-67745000D02*
X110745000Y-61255000D01*
X110745000Y-61255000D02*
X111000000Y-61000000D01*
%TO.N,/C2*%
X79636337Y-63909012D02*
X79090988Y-63909012D01*
X79090988Y-63909012D02*
X78000000Y-65000000D01*
%TO.N,/C4*%
X82510000Y-72980000D02*
X77750000Y-72980000D01*
X76730000Y-74000000D02*
X75000000Y-74000000D01*
X83480000Y-74080000D02*
X83480000Y-73950000D01*
X83480000Y-73950000D02*
X82510000Y-72980000D01*
X77750000Y-72980000D02*
X76730000Y-74000000D01*
%TO.N,/B5*%
X78200000Y-77300000D02*
X80500000Y-75000000D01*
X80500000Y-75000000D02*
X81000000Y-75000000D01*
%TO.N,/D1*%
X82800000Y-58800000D02*
X82000000Y-58800000D01*
X86000000Y-62000000D02*
X82800000Y-58800000D01*
X95100000Y-64300000D02*
X95100000Y-63200000D01*
X93400000Y-60600000D02*
X93400000Y-60000000D01*
X92000000Y-62000000D02*
X93400000Y-60600000D01*
X92000000Y-62000000D02*
X86000000Y-62000000D01*
%TO.N,/D3*%
X95100000Y-70500000D02*
X95100000Y-69100000D01*
%TO.N,/D5*%
X95100000Y-76700000D02*
X95100000Y-78100000D01*
%TO.N,/D7*%
X95100000Y-82900000D02*
X93800000Y-82900000D01*
X81000000Y-82000000D02*
X78000000Y-85000000D01*
%TO.N,/B1*%
X88900000Y-64300000D02*
X87600000Y-64300000D01*
X82200000Y-57000000D02*
X82000000Y-56800000D01*
X87000000Y-57000000D02*
X82200000Y-57000000D01*
%TO.N,/B3*%
X88900000Y-70500000D02*
X87500000Y-70500000D01*
X82000000Y-60800000D02*
X81000000Y-61800000D01*
X81000000Y-61800000D02*
X81000000Y-68000000D01*
%TO.N,/B5*%
X88900000Y-76700000D02*
X87100000Y-76700000D01*
X78200000Y-79800000D02*
X78200000Y-77300000D01*
X74000000Y-82600000D02*
X75900000Y-80700000D01*
X75900000Y-80700000D02*
X77300000Y-80700000D01*
X77300000Y-80700000D02*
X78200000Y-79800000D01*
X74000000Y-85000000D02*
X74000000Y-82600000D01*
%TO.N,/B7*%
X88900000Y-82900000D02*
X88900000Y-84300000D01*
X76000000Y-85000000D02*
X76000000Y-83000000D01*
%TO.N,/E1*%
X98200000Y-64300000D02*
X98200000Y-63300000D01*
X98900000Y-61900000D02*
X104700000Y-61900000D01*
X98200000Y-63300000D02*
X98100000Y-63200000D01*
X97000000Y-60000000D02*
X98900000Y-61900000D01*
X107600000Y-59000000D02*
X111000000Y-59000000D01*
X104700000Y-61900000D02*
X107600000Y-59000000D01*
%TO.N,/E3*%
X98200000Y-70500000D02*
X98200000Y-69000000D01*
%TO.N,/E5*%
X98200000Y-76700000D02*
X98200000Y-78100000D01*
%TO.N,/E7*%
X99200000Y-84100000D02*
X98200000Y-84100000D01*
X112000000Y-85000000D02*
X112000000Y-87000000D01*
X98200000Y-82900000D02*
X98200000Y-84100000D01*
X112000000Y-87000000D02*
X111600000Y-87400000D01*
X100200000Y-83100000D02*
X99200000Y-84100000D01*
X101500000Y-83100000D02*
X100200000Y-83100000D01*
%TO.N,/G1*%
X104400000Y-64300000D02*
X104400000Y-63200000D01*
X107000000Y-57000000D02*
X111000000Y-57000000D01*
%TO.N,/G3*%
X104400000Y-70500000D02*
X105600000Y-70500000D01*
%TO.N,/G5*%
X115500000Y-83500000D02*
X114000000Y-85000000D01*
X104400000Y-76700000D02*
X107400000Y-76700000D01*
X115500000Y-78500000D02*
X115500000Y-83500000D01*
X113000000Y-76000000D02*
X115500000Y-78500000D01*
X107400000Y-76700000D02*
X107500000Y-76600000D01*
%TO.N,/G7*%
X118000000Y-83000000D02*
X116000000Y-85000000D01*
X118000000Y-82000000D02*
X118000000Y-83000000D01*
X104400000Y-82900000D02*
X106100000Y-82900000D01*
%TO.N,/C8*%
X85700000Y-90000000D02*
X92000000Y-90000000D01*
X84700000Y-89000000D02*
X85700000Y-90000000D01*
X92000000Y-86000000D02*
X92000000Y-87100000D01*
X82000000Y-89000000D02*
X84700000Y-89000000D01*
%TO.N,/C6*%
X92000000Y-79800000D02*
X90800000Y-79800000D01*
%TO.N,/C4*%
X92000000Y-73600000D02*
X90500000Y-73600000D01*
%TO.N,/C2*%
X92000000Y-67400000D02*
X92000000Y-66400000D01*
%TO.N,/A8*%
X84000000Y-93000000D02*
X86000000Y-93000000D01*
X85800000Y-86000000D02*
X85800000Y-87100000D01*
X82000000Y-91000000D02*
X84000000Y-93000000D01*
%TO.N,/A6*%
X83200000Y-85800000D02*
X83200000Y-80100000D01*
X85800000Y-79800000D02*
X84700000Y-79800000D01*
X82000000Y-87000000D02*
X83200000Y-85800000D01*
X82100000Y-79000000D02*
X81000000Y-79000000D01*
X83200000Y-80100000D02*
X82100000Y-79000000D01*
%TO.N,/A4*%
X81000000Y-71000000D02*
X78700000Y-71000000D01*
X77600000Y-69900000D02*
X77600000Y-68100000D01*
X76000000Y-66500000D02*
X77600000Y-68100000D01*
X85800000Y-73600000D02*
X84700000Y-73600000D01*
X78700000Y-71000000D02*
X77600000Y-69900000D01*
X76000000Y-65000000D02*
X76000000Y-66500000D01*
%TO.N,/A2*%
X85800000Y-67400000D02*
X85800000Y-66400000D01*
X74000000Y-65000000D02*
X74000000Y-68000000D01*
X74000000Y-68000000D02*
X75000000Y-69000000D01*
%TO.N,/F8*%
X108400000Y-90000000D02*
X103000000Y-90000000D01*
X101300000Y-86000000D02*
X101400000Y-86000000D01*
X101400000Y-86000000D02*
X102300000Y-86900000D01*
X111000000Y-91200000D02*
X109600000Y-91200000D01*
X109600000Y-91200000D02*
X108400000Y-90000000D01*
%TO.N,/F6*%
X101300000Y-79800000D02*
X102400000Y-79800000D01*
X102400000Y-79800000D02*
X103300000Y-78900000D01*
%TO.N,/F4*%
X101300000Y-73600000D02*
X101300000Y-72000000D01*
%TO.N,/F2*%
X112000000Y-65200000D02*
X113800000Y-65200000D01*
X101300000Y-67400000D02*
X101300000Y-66300000D01*
X101300000Y-66300000D02*
X104700000Y-66300000D01*
X113800000Y-65200000D02*
X114000000Y-65000000D01*
%TO.N,/H8*%
X107200000Y-93200000D02*
X107000000Y-93000000D01*
X107500000Y-86000000D02*
X107500000Y-87200000D01*
X111000000Y-93200000D02*
X107200000Y-93200000D01*
%TO.N,/H6*%
X111100000Y-81000000D02*
X110200000Y-81900000D01*
X110200000Y-88400000D02*
X111000000Y-89200000D01*
X113000000Y-81000000D02*
X111100000Y-81000000D01*
X110200000Y-81900000D02*
X110200000Y-88400000D01*
X107500000Y-79800000D02*
X108600000Y-80900000D01*
%TO.N,/H4*%
X115300000Y-67800000D02*
X115300000Y-72300000D01*
X114600000Y-73000000D02*
X113000000Y-73000000D01*
X116000000Y-65000000D02*
X116000000Y-67100000D01*
X107500000Y-73600000D02*
X108600000Y-73600000D01*
X115300000Y-72300000D02*
X114600000Y-73000000D01*
X116000000Y-67100000D02*
X115300000Y-67800000D01*
%TO.N,/H2*%
X107500000Y-67400000D02*
X108500000Y-67400000D01*
X118000000Y-69000000D02*
X118000000Y-65000000D01*
%TD*%
M02*
