M48
; DRILL file {KiCad 9.0.3} date 2025-07-16T09:58:17-0700
; FORMAT={-:-/ absolute / inch / decimal}
; #@! TF.CreationDate,2025-07-16T09:58:17-07:00
; #@! TF.GenerationSoftware,Kicad,Pcbnew,9.0.3
; #@! TF.FileFunction,Plated,1,2,PTH
FMAT,2
INCH
; #@! TA.AperFunction,Plated,PTH,ViaDrill
T1C0.0118
; #@! TA.AperFunction,Plated,PTH,ComponentDrill
T2C0.0276
%
G90
G05
T1
X2.9921Y-3.2677
X3.1353Y-2.5161
X3.2866Y-2.9165
X3.3346Y-2.8976
X3.3346Y-3.1417
X3.378Y-2.6142
X3.378Y-3.4291
X3.4291Y-3.0197
X3.4449Y-2.7756
X3.4488Y-2.5315
X3.5Y-3.3189
X3.563Y-2.8976
X3.5748Y-3.1417
X3.622Y-2.6142
X3.622Y-3.4291
X3.6929Y-3.2638
X3.7441Y-2.4882
X3.7441Y-2.7205
X3.7441Y-3.0748
X3.8622Y-2.4882
X3.8661Y-2.7165
X3.8661Y-3.0748
X3.8661Y-3.311
X3.9882Y-2.6102
X3.9882Y-2.8346
X3.9961Y-3.2717
X4.0276Y-3.4213
X4.0669Y-3.1063
X4.1102Y-2.4882
X4.122Y-2.6102
X4.1575Y-2.7756
X4.1772Y-3.2638
X4.2323Y-3.0157
X4.2323Y-3.4331
X4.2717Y-2.6535
X4.2756Y-2.8976
X4.2756Y-3.185
X4.3937Y-3.4409
X4.4094Y-2.5669
T2
X2.9528Y-2.7165
X2.9528Y-2.9134
X2.9528Y-3.0709
X3.189Y-2.6772
X3.189Y-2.7953
X3.189Y-2.9528
X3.189Y-3.1102
X3.189Y-3.2283
X3.3858Y-3.6614
X3.4252Y-2.2441
X3.4646Y-2.3622
X3.5039Y-3.6614
X3.622Y-2.2441
X3.622Y-3.5433
X3.6772Y-2.3622
X3.7402Y-3.6614
X3.8189Y-2.3622
X3.8583Y-3.5433
X3.8976Y-2.2441
X3.8976Y-3.6614
X3.9685Y-2.3622
X4.0551Y-2.2441
X4.0551Y-3.5433
X4.2126Y-2.2441
X4.2126Y-3.6614
X4.4488Y-2.7559
X4.4488Y-2.874
X4.4488Y-2.9921
X4.4488Y-3.189
X4.6457Y-2.7165
X4.6457Y-3.0709
X4.6457Y-3.2283
M30
