%TF.GenerationSoftware,KiCad,Pcbnew,9.0.3*%
%TF.CreationDate,2025-09-12T09:25:43-07:00*%
%TF.ProjectId,SiPM_board_draft,5369504d-5f62-46f6-9172-645f64726166,v1.1*%
%TF.SameCoordinates,Original*%
%TF.FileFunction,Copper,L2,Inr*%
%TF.FilePolarity,Positive*%
%FSLAX46Y46*%
G04 Gerber Fmt 4.6, Leading zero omitted, Abs format (unit mm)*
G04 Created by KiCad (PCBNEW 9.0.3) date 2025-09-12 09:25:43*
%MOMM*%
%LPD*%
G01*
G04 APERTURE LIST*
G04 Aperture macros list*
%AMRoundRect*
0 Rectangle with rounded corners*
0 $1 Rounding radius*
0 $2 $3 $4 $5 $6 $7 $8 $9 X,Y pos of 4 corners*
0 Add a 4 corners polygon primitive as box body*
4,1,4,$2,$3,$4,$5,$6,$7,$8,$9,$2,$3,0*
0 Add four circle primitives for the rounded corners*
1,1,$1+$1,$2,$3*
1,1,$1+$1,$4,$5*
1,1,$1+$1,$6,$7*
1,1,$1+$1,$8,$9*
0 Add four rect primitives between the rounded corners*
20,1,$1+$1,$2,$3,$4,$5,0*
20,1,$1+$1,$4,$5,$6,$7,0*
20,1,$1+$1,$6,$7,$8,$9,0*
20,1,$1+$1,$8,$9,$2,$3,0*%
G04 Aperture macros list end*
%TA.AperFunction,ComponentPad*%
%ADD10RoundRect,0.250000X-0.600000X-0.600000X0.600000X-0.600000X0.600000X0.600000X-0.600000X0.600000X0*%
%TD*%
%TA.AperFunction,ComponentPad*%
%ADD11RoundRect,0.250000X0.600000X-0.600000X0.600000X0.600000X-0.600000X0.600000X-0.600000X-0.600000X0*%
%TD*%
%TA.AperFunction,ViaPad*%
%ADD12C,0.650000*%
%TD*%
%TA.AperFunction,Conductor*%
%ADD13C,0.508000*%
%TD*%
G04 APERTURE END LIST*
D10*
%TO.N,/preF_Ch5*%
%TO.C,J5*%
X75000000Y-68200000D03*
%TD*%
D11*
%TO.N,/GND*%
%TO.C,J12*%
X111000000Y-57000000D03*
%TD*%
D10*
%TO.N,/GND*%
%TO.C,J7*%
X110600000Y-93000000D03*
%TD*%
%TO.N,/sigCh6*%
%TO.C,J13*%
X98600000Y-56800000D03*
%TD*%
%TO.N,/GND*%
%TO.C,J4*%
X81800000Y-93000000D03*
%TD*%
%TO.N,/sigCh5*%
%TO.C,J24*%
X75000000Y-71400000D03*
%TD*%
%TO.N,/C4*%
%TO.C,J19*%
X75000000Y-74600000D03*
%TD*%
%TO.N,/preF_Ch1*%
%TO.C,J2*%
X86800000Y-56800000D03*
%TD*%
%TO.N,/sigCh7*%
%TO.C,J21*%
X85200000Y-93000000D03*
%TD*%
%TO.N,/preF_Ch2*%
%TO.C,J27*%
X118200000Y-65000000D03*
%TD*%
%TO.N,/preF_Ch8*%
%TO.C,J29*%
X101650000Y-93000000D03*
%TD*%
%TO.N,/E3*%
%TO.C,J10*%
X95400000Y-56800000D03*
%TD*%
%TO.N,/E5*%
%TO.C,J11*%
X97650000Y-93000000D03*
%TD*%
%TO.N,/C6*%
%TO.C,J18*%
X75000000Y-77600000D03*
%TD*%
%TO.N,/preF_Ch6*%
%TO.C,J32*%
X103000000Y-56800000D03*
%TD*%
%TO.N,/GND*%
%TO.C,J1*%
X82200000Y-56800000D03*
%TD*%
%TO.N,/preF_Ch3*%
%TO.C,J3*%
X89000000Y-93000000D03*
%TD*%
%TO.N,/preF_Ch7*%
%TO.C,J8*%
X75000000Y-80600000D03*
%TD*%
%TO.N,/preF_Ch4*%
%TO.C,J26*%
X118400000Y-75200000D03*
%TD*%
%TO.N,/sigCh8*%
%TO.C,J16*%
X118400000Y-84800000D03*
%TD*%
D12*
%TO.N,/biasCh5*%
X77988026Y-67211975D03*
%TO.N,/F6*%
X117200000Y-77200000D03*
%TO.N,/F4*%
X117400000Y-67000000D03*
%TO.N,/biasCh6*%
X105200000Y-57900000D03*
%TO.N,/biasCh7*%
X75800000Y-82700000D03*
%TO.N,/D5*%
X91200000Y-92000000D03*
%TO.N,/biasCh8*%
X104100000Y-92100000D03*
%TO.N,/D3*%
X89000000Y-57800000D03*
%TO.N,/GND*%
X118800000Y-71500000D03*
X118800000Y-81700000D03*
X95700000Y-93300000D03*
X74500000Y-87300000D03*
X76100000Y-63400000D03*
X93400000Y-56400000D03*
%TO.N,/sigCh5*%
X85800000Y-68300000D03*
X85800000Y-72700000D03*
X86700000Y-67400000D03*
X91100000Y-67400000D03*
%TO.N,/biasCh6*%
X107500000Y-68300000D03*
%TO.N,/sigCh7*%
X85800000Y-85100000D03*
%TO.N,/biasCh8*%
X106600000Y-86000000D03*
%TO.N,/sigCh8*%
X103500000Y-82900000D03*
%TO.N,/biasCh7*%
X88900000Y-82000000D03*
%TO.N,/biasCh5*%
X88900000Y-65200000D03*
%TO.N,/sigCh6*%
X104400000Y-65200000D03*
%TO.N,/E5*%
X98200000Y-77600000D03*
%TO.N,/D5*%
X95100000Y-77600000D03*
%TO.N,/C4*%
X91100000Y-73600000D03*
%TO.N,/biasCh7*%
X88900000Y-77600000D03*
%TO.N,/C6*%
X91300000Y-79100000D03*
%TO.N,/sigCh7*%
X85800000Y-80700000D03*
%TO.N,/biasCh7*%
X89800000Y-82900000D03*
%TO.N,/sigCh7*%
X86700000Y-86000000D03*
X91100000Y-86000000D03*
%TO.N,/biasCh7*%
X94200000Y-82900000D03*
%TO.N,/biasCh8*%
X102200000Y-86000000D03*
X107500000Y-85100000D03*
%TO.N,/sigCh8*%
X99100000Y-82900000D03*
X104400000Y-82000000D03*
%TO.N,/biasCh8*%
X107500000Y-80700000D03*
%TO.N,/F6*%
X102200000Y-79800000D03*
%TO.N,/sigCh8*%
X104400000Y-77600000D03*
%TO.N,/F4*%
X102200000Y-73600000D03*
%TO.N,/biasCh6*%
X107500000Y-72700000D03*
%TO.N,/sigCh6*%
X104400000Y-69600000D03*
%TO.N,/biasCh6*%
X106600000Y-67400000D03*
X102200000Y-67400000D03*
%TO.N,/sigCh6*%
X103500000Y-64300000D03*
X99100000Y-64300000D03*
%TO.N,/E3*%
X98200000Y-69600000D03*
%TO.N,/D3*%
X95100000Y-69600000D03*
%TO.N,/biasCh5*%
X88900000Y-69600000D03*
X94200000Y-64300000D03*
X89800000Y-64300000D03*
%TD*%
D13*
%TO.N,/sigCh7*%
X85200000Y-93000000D02*
X85200000Y-87500000D01*
X85200000Y-87500000D02*
X86700000Y-86000000D01*
%TO.N,/C4*%
X81700000Y-74600000D02*
X82500000Y-75400000D01*
X89300000Y-75400000D02*
X91100000Y-73600000D01*
X75000000Y-74600000D02*
X81700000Y-74600000D01*
X82500000Y-75400000D02*
X89300000Y-75400000D01*
%TO.N,/sigCh5*%
X85800000Y-72700000D02*
X84500000Y-71400000D01*
X84500000Y-71400000D02*
X75000000Y-71400000D01*
%TO.N,/sigCh6*%
X99100000Y-64300000D02*
X98600000Y-63800000D01*
X98600000Y-63800000D02*
X98600000Y-56800000D01*
%TO.N,/biasCh8*%
X106600000Y-86000000D02*
X102200000Y-86000000D01*
X107500000Y-80700000D02*
X107500000Y-85100000D01*
%TO.N,/biasCh7*%
X89800000Y-82900000D02*
X94200000Y-82900000D01*
X88900000Y-77600000D02*
X88900000Y-82000000D01*
%TO.N,/biasCh6*%
X107500000Y-68300000D02*
X107500000Y-72700000D01*
X102200000Y-67400000D02*
X106600000Y-67400000D01*
%TO.N,/biasCh5*%
X88900000Y-65200000D02*
X88900000Y-69600000D01*
X89800000Y-64300000D02*
X94200000Y-64300000D01*
%TD*%
M02*
